<svg width="24" height="25" viewBox="0 0 24 25" fill="none" xmlns="http://www.w3.org/2000/svg">
<path fill-rule="evenodd" clip-rule="evenodd" d="M2.82812 1.09537C3.35902 0.565229 4.09188 0.288407 4.84066 0.335174C5.58945 0.381941 6.28217 0.7478 6.743 1.33989L9.43541 4.79904C9.92889 5.43357 10.1029 6.26011 9.9079 7.04015L9.08742 10.3253C9.00114 10.6714 9.10245 11.0374 9.35441 11.2898L13.0398 14.9755C13.2925 15.228 13.6592 15.3294 14.0058 15.2425L17.2892 14.422C18.0691 14.227 18.8953 14.4012 19.5301 14.8945L22.989 17.5856C24.2324 18.5532 24.3464 20.3908 23.2335 21.5023L21.6825 23.0534C20.5726 24.1634 18.9136 24.6509 17.3672 24.1064C13.4091 22.7136 9.81531 20.4475 6.85249 17.4761C3.88152 14.5135 1.61557 10.92 0.222699 6.96214C-0.320284 5.41707 0.167201 3.7565 1.27717 2.64645L2.82812 1.09537Z" fill="white"/>
</svg>
