<svg width="24" height="19" viewBox="0 0 24 19" fill="none" xmlns="http://www.w3.org/2000/svg">
<path fill-rule="evenodd" clip-rule="evenodd" d="M3 0.330078C1.60024 0.329984 0.386447 1.29791 0.075 2.66258L12 9.95108L23.925 2.66258C23.6136 1.29791 22.3998 0.329984 21 0.330078H3ZM0 15.0316V4.37558L8.7045 9.69458L0 15.0316ZM10.1416 10.575L0.286621 16.6155C0.783631 17.6635 1.84024 18.3311 3.00012 18.33H21.0001C22.1598 18.3302 23.2158 17.6621 23.7121 16.614L13.8571 10.5735L12.0001 11.709L10.1416 10.5735V10.575ZM24 15.0316L15.2955 9.69608V9.69458L24 4.37558V15.0316Z" fill="white"/>
</svg>
