<svg width="16" height="14" viewBox="0 0 16 14" fill="none" xmlns="http://www.w3.org/2000/svg">
<path d="M16 1.87008C15.412 2.13141 14.7787 2.30741 14.1147 2.38741C14.7933 1.98074 15.312 1.33808 15.5587 0.571411C14.924 0.947411 14.2213 1.22074 13.4733 1.36741C12.876 0.728745 12.0213 0.330078 11.0787 0.330078C8.95867 0.330078 7.40133 2.30741 7.88 4.36074C5.15333 4.22341 2.73333 2.91674 1.11467 0.931411C0.254667 2.40608 0.669333 4.33675 2.13067 5.31408C1.59333 5.29674 1.088 5.14874 0.645333 4.90341C0.609333 6.42341 1.7 7.84608 3.27867 8.16341C2.81733 8.28874 2.31067 8.31808 1.796 8.21941C2.21333 9.52341 3.428 10.4714 4.86267 10.4981C3.48 11.5807 1.74267 12.0647 0 11.8594C1.45333 12.7914 3.17733 13.3341 5.03067 13.3341C11.1267 13.3341 14.5693 8.18608 14.3613 3.56874C15.004 3.10741 15.56 2.52874 16 1.87008Z" fill="white"/>
</svg>
