<svg width="16" height="17" viewBox="0 0 16 17" fill="none" xmlns="http://www.w3.org/2000/svg">
<path fill-rule="evenodd" clip-rule="evenodd" d="M8 0.330078C5.82667 0.330078 5.556 0.339411 4.70133 0.379411C1.79467 0.512745 0.181333 2.12474 0.048 5.03141C0.00933333 5.88608 0 6.15808 0 8.33008C0 10.5034 0.00933333 10.7754 0.048 11.6287C0.181333 14.5341 1.79467 16.1487 4.70133 16.2821C5.556 16.3207 5.82667 16.3301 8 16.3301C10.1733 16.3301 10.4453 16.3207 11.3 16.2821C14.2013 16.1487 15.8213 14.5367 15.952 11.6287C15.9907 10.7754 16 10.5034 16 8.33008C16 6.15808 15.9907 5.88608 15.952 5.03141C15.8213 2.12875 14.2067 0.511411 11.3 0.379411C10.4453 0.339411 10.1733 0.330078 8 0.330078ZM8.00007 1.77295C10.1361 1.77295 10.3894 1.78095 11.2334 1.81962C13.4027 1.91828 14.4134 2.94628 14.5134 5.09828C14.5507 5.94228 14.5587 6.19428 14.5587 8.33028C14.5587 10.4663 14.5507 10.7196 14.5134 11.5623C14.4134 13.7129 13.4041 14.7436 11.2334 14.8423C10.3894 14.8796 10.1374 14.8889 8.00007 14.8889C5.86407 14.8889 5.61074 14.8809 4.76807 14.8423C2.59474 14.7423 1.58807 13.7103 1.48807 11.5623C1.45074 10.7196 1.44141 10.4663 1.44141 8.33028C1.44141 6.19428 1.45074 5.94095 1.48807 5.09828C1.58674 2.94495 2.59741 1.91695 4.76807 1.81828C5.61074 1.77962 5.86407 1.77295 8.00007 1.77295ZM3.892 8.33008C3.892 6.06074 5.732 4.22208 8 4.22208C10.268 4.22208 12.108 6.06208 12.108 8.33008C12.108 10.5994 10.268 12.4381 8 12.4381C5.732 12.4381 3.892 10.5994 3.892 8.33008ZM7.99992 10.9969C6.52659 10.9969 5.33325 9.80357 5.33325 8.33024C5.33325 6.85824 6.52659 5.66357 7.99992 5.66357C9.47192 5.66357 10.6679 6.85691 10.6679 8.33024C10.6679 9.80357 9.47192 10.9969 7.99992 10.9969ZM11.3093 4.06059C11.3093 3.52992 11.74 3.10059 12.2693 3.10059C12.8013 3.10059 13.2307 3.52992 13.2307 4.06059C13.2307 4.59125 12.8 5.02059 12.2693 5.02059C11.7387 5.02059 11.3093 4.58992 11.3093 4.06059Z" fill="white"/>
</svg>
